<?xml version="1.0" encoding="UTF-8"?>
<svg xmlns="http://www.w3.org/2000/svg" version="1.1" viewBox="0 0 304 225">
  <defs>
    <style>
      .cls-1 {
        fill: #000;
      }

      .cls-1, .cls-2, .cls-3 {
        stroke-width: 0px;
      }

      .cls-2 {
        fill: #754c24;
      }

      .cls-4 {
        fill: none;
        stroke: #000;
      }

      .cls-4, .cls-5, .cls-6 {
        stroke-miterlimit: 10;
        stroke-width: 4px;
      }

      .cls-5 {
        fill: #fff;
        stroke: #e6e6e6;
      }

      .cls-6 {
        fill: #9cf;
        stroke: #6b97bd;
      }

      .cls-3 {
        fill: #8c6239;
      }

      .cls-7 {
        display: none;
      }

      .cls-8 {
        opacity: .37;
      }
    </style>
  </defs>
  <g id="Layer_1" data-name="Layer 1" class="cls-7">
    <path class="cls-1" d="M41.39,197.08c3.96-12.76,7.92-25.53,11.87-38.29,1.79-5.77,3.61-11.53,7.21-16.46,1.72-2.36,3.7-4.52,5.48-6.83,1.89-2.45,3.49-5.08,5-7.77,2.97-5.31,5.97-10.46,9.86-15.17s7.93-8.69,12.19-12.73c2.1-1.99,4.2-4,6.37-5.91s4.44-3.53,7.29-3.78c3.04-.27,6.03.88,8.82,1.92,2.94,1.1,5.86,2.11,8.97,2.64,6.16,1.06,12.45.89,18.67.77s13.04-.39,19.55-.79c13.15-.82,26.27-2.23,39.3-4.19,6.45-.97,12.88-2.08,19.28-3.33,1.27-.25,2.88-.8,4.09-.11,1.15.65,2.11,2.05,3,3,2.02,2.19,4,4.43,5.92,6.71,7.55,8.97,14.27,18.65,20.08,28.84s11.44,21.67,14.57,33.39c1.68,6.29,2.43,12.75,3.03,19.22s1.2,13.21,1.8,19.81c.3,3.32.6,6.63.9,9.95.17,1.91,3.17,1.93,3,0-.63-6.96-1.27-13.93-1.9-20.89-.6-6.6-1.08-13.23-2.08-19.79-1.93-12.67-6.95-24.57-12.79-35.9-5.49-10.67-11.97-20.81-19.31-30.3-3.69-4.77-7.59-9.37-11.7-13.79-.92-.99-1.83-2.14-3.01-2.83-1.24-.73-2.65-.8-4.05-.61-3.2.43-6.38,1.21-9.57,1.77-13.35,2.38-26.81,4.15-40.32,5.31-6.66.57-13.33.99-20.01,1.26s-13.49.53-20.22.31c-3.1-.1-6.21-.36-9.24-1.03s-6.06-1.94-9.08-2.99-5.92-1.69-8.96-1.18c-2.81.47-5.21,2.04-7.36,3.83-4.61,3.85-8.96,8.16-13.15,12.46s-8.11,8.85-11.41,13.85-5.91,11.04-9.71,16.04c-1.81,2.38-3.83,4.6-5.62,7s-3.33,5.22-4.53,8.1c-2.48,5.95-4.12,12.27-6.03,18.41-2.05,6.62-4.1,13.24-6.16,19.86l-2.93,9.45c-.57,1.85,2.32,2.64,2.89.8h0Z"/>
    <path class="cls-1" d="M275.47,206.89c-14.17,5.72-29.53,6.76-44.65,6.75-16.1-.01-32.21-.57-48.3-.9-33.14-.68-66.28-1.35-99.43-2.03-4.64-.09-9.28-.18-13.92-.28-4.34-.09-8.71-.2-12.99-.94-7.86-1.35-14.94-5.08-20.31-11.01-1.3-1.43-3.41.69-2.12,2.12,4.64,5.13,10.7,8.93,17.36,10.82,7.6,2.16,15.67,1.96,23.49,2.12,16.82.34,33.64.69,50.46,1.03,16.82.34,33.64.69,50.46,1.03s33.36.78,50.04,1c15.21.2,30.79-.18,45.39-4.89,1.8-.58,3.57-1.23,5.32-1.93s1-3.62-.8-2.89h0Z"/>
    <path class="cls-1" d="M109.58,88.47c6.42-3.9,14.47-3.83,21.66-5.14,7.87-1.43,15.59-3.53,23.36-5.37s15.71-3.44,23.75-3.78,15.27.4,22.73,2.02c8.51,1.86,16.73,4.86,24.49,8.8,1.72.87,3.24-1.72,1.51-2.59-14.02-7.12-29.6-11.34-45.38-11.3-16.61.04-32.38,5.56-48.5,8.8-4.35.88-8.74,1.41-13.13,2.09s-8.35,1.66-12.02,3.89c-1.65,1-.14,3.6,1.51,2.59h0Z"/>
    <path class="cls-1" d="M106.01,87.13c-.11-3.16,3.31-5.11,5.65-6.55,3.13-1.93,6.68-4.02,10.49-3.75,3.51.25,6.7,2.87,8.98,5.38s3.81,5.49,3.84,8.86c.01,1.93,3.01,1.93,3,0-.03-4.17-1.95-7.94-4.71-10.98s-6.75-5.98-11.1-6.26c-4.63-.3-8.99,2.24-12.76,4.63-3.09,1.96-6.53,4.63-6.39,8.68.07,1.92,3.07,1.93,3,0h0Z"/>
    <path class="cls-1" d="M130.93,76.72c4.97-6.8,12.6-11.44,20.83-13.07,4.31-.85,8.95-.9,13.21.25,4.5,1.22,7.86,4.1,10.02,8.2,2.65,5.03,3.12,10.85,3.58,16.42.16,1.91,3.16,1.93,3,0-.46-5.55-.96-11.19-3.23-16.34-1.99-4.53-5.33-8.32-9.94-10.25-8.9-3.74-19.93-1.77-28.16,2.77-4.7,2.59-8.75,6.19-11.91,10.52-1.14,1.56,1.46,3.06,2.59,1.51h0Z"/>
    <path class="cls-1" d="M175.43,67.83c3.83-1.19,7.76-2.39,11.79-2.63,4.29-.25,7.95.86,11.48,3.27,3.29,2.25,6.51,4.59,8.61,8.05,1.98,3.26,3.11,6.92,4.22,10.54.57,1.84,3.46,1.06,2.89-.8-1.21-3.92-2.45-7.93-4.63-11.43-2.38-3.83-5.92-6.44-9.58-8.95s-7.79-3.86-12.34-3.71-8.94,1.43-13.24,2.77c-1.84.57-1.05,3.47.8,2.89h0Z"/>
    <path class="cls-1" d="M211.34,77.67c2.82-.58,6.05-1.32,8.85-.2,1.76.7,3.72,2.59,3.45,4.62-.11.8.19,1.61,1.05,1.85.7.19,1.74-.24,1.85-1.05.46-3.39-1.58-6.47-4.62-7.92-3.59-1.71-7.64-.97-11.37-.2-.79.16-1.25,1.1-1.05,1.85.23.82,1.05,1.21,1.85,1.05h0Z"/>
    <path class="cls-1" d="M162.28,61.82c3.76-3.49,8.72-5.64,13.85-5.96,4.06-.26,10.75.35,12.23,5,.59,1.83,3.48,1.05,2.89-.8-1.86-5.84-8.94-7.41-14.35-7.24-6.21.19-12.2,2.65-16.74,6.88-1.42,1.32.71,3.43,2.12,2.12h0Z"/>
    <path class="cls-1" d="M116.41,74.46c-.48-2.4,1.47-4.53,3.12-6,1.94-1.71,4.17-3.13,6.52-4.21s4.75-1.73,7.24-1.86c1.97-.11,5.03-.16,6.33,1.66,1.11,1.56,3.71.06,2.59-1.51-1.82-2.56-4.91-3.17-7.89-3.18-3.26,0-6.44.82-9.41,2.12-5.1,2.25-12.71,7.24-11.4,13.77.38,1.89,3.27,1.09,2.89-.8h0Z"/>
    <path class="cls-1" d="M138.18,61.98c2.28-5.39,7.03-8.4,12.73-9.15,2.81-.37,5.91-.55,8.72-.2,3.12.38,4.94,2.41,6.79,4.74,1.2,1.51,3.31-.62,2.12-2.12-2.06-2.58-4.29-4.85-7.68-5.45s-7.04-.36-10.4.09c-6.5.86-12.26,4.39-14.88,10.58-.32.75-.22,1.6.54,2.05.63.37,1.74.21,2.05-.54h0Z"/>
    <path class="cls-1" d="M191.24,57.13c5.37-1.05,11.06-.06,15.75,2.75,2.39,1.43,4.45,3.33,6.34,5.37,1.34,1.45,4.7,4.47,3.53,6.71-.9,1.71,1.69,3.23,2.59,1.51,1.61-3.07-.31-6.07-2.29-8.42-2.24-2.65-4.71-5.14-7.59-7.1-5.57-3.76-12.55-5.01-19.11-3.72-1.89.37-1.09,3.26.8,2.89h0Z"/>
  </g>
  <g id="Layer_3" data-name="Layer 3" class="cls-7">
    <g class="cls-8">
      <path class="cls-1" d="M36.01,185.59c4.1-15.03,9.57-29.66,16.39-43.66,3.42-7.02,7.17-13.89,11.23-20.56,2.03-3.34,4.14-6.63,6.32-9.87,1.07-1.59,2.16-3.16,3.27-4.73.97-1.37,1.92-3.14,3.34-4.12,1.62-1.11,3.85.13,5.47.68,1.93.65,3.86,1.27,5.81,1.86,3.96,1.2,7.96,2.28,11.98,3.24,7.98,1.91,16.07,3.37,24.2,4.49,16.47,2.26,33.09,3.15,49.69,3.41,8.26.13,16.68,0,24.69-2.26,6.95-1.96,13.43-5.43,18.95-10.07,1.36-1.14,2.65-2.36,3.87-3.63h-2.12c8.26,6.87,16.61,13.84,23.31,22.31,3.37,4.27,6.25,8.96,8.35,13.98,2.22,5.29,3.64,10.89,4.62,16.53,2.09,12.01,2.55,24.42,2.57,36.59,0,1.49,0,2.97-.03,4.46s.16,2.92-1.07,3.88c-2.13,1.65-4.96,2.76-7.43,3.79-5.45,2.28-11.16,3.86-16.84,5.46-23.72,6.64-47.89,12.07-72.43,14.49-23.31,2.3-46.99,1.89-70.03-2.64-11.26-2.22-22.34-5.4-32.99-9.68-5.16-2.07-10.38-4.31-15.2-7.11-4.01-2.33-8-5.76-7.97-10.78.01-2.08.77-3.93,2.41-5.24,1.51-1.2-.63-3.31-2.12-2.12-3.74,2.98-3.99,8.45-2.16,12.56,2.15,4.82,7.13,7.68,11.64,9.94,10.64,5.33,21.88,9.47,33.38,12.51,23.5,6.22,48.05,7.92,72.26,6.43,25.77-1.59,51.2-6.67,76.11-13.31,6.02-1.6,12.06-3.21,17.98-5.14,2.83-.92,5.63-1.95,8.35-3.15,2.47-1.09,5.42-2.24,7.42-4.1,2.2-2.05,1.69-5.54,1.71-8.26.02-3.31-.02-6.61-.12-9.91-.19-6.51-.56-13.01-1.22-19.49-1.19-11.79-3.58-23.65-9.66-33.97-5.68-9.64-13.86-17.49-22.28-24.72-2.13-1.83-4.28-3.62-6.44-5.41-.61-.51-1.52-.63-2.12,0-5.02,5.22-11.19,9.31-18,11.81-7.86,2.87-16.21,3.36-24.51,3.31-16.64-.09-33.34-.95-49.85-3.08-8.32-1.07-16.59-2.52-24.76-4.42-4.03-.94-8.04-1.99-12-3.16-2.02-.6-4.04-1.23-6.04-1.89-1.79-.6-3.63-1.46-5.53-1.61-3.86-.3-5.98,3.51-7.9,6.23-2.26,3.19-4.44,6.43-6.54,9.72-4.25,6.65-8.18,13.49-11.78,20.51-7.16,13.95-13.04,28.56-17.5,43.59-.55,1.84-1.07,3.68-1.57,5.53s2.38,2.66,2.89.8h0Z"/>
    </g>
    <g class="cls-8">
      <path class="cls-1" d="M77.49,100.76c12.17-12.75,31.99-12.95,48.37-13.62,10.7-.44,21.44-.73,32.15-.46,10.72.27,21.41,1.52,32.08,2.51,5.97.56,11.95,1.08,17.91,1.76,2.84.32,5.72.59,8.53,1.14,1.21.23,2.5.55,3.45,1.38.71.62,1.39,1.79.99,2.75-.32.75-.22,1.6.54,2.05.63.38,1.74.21,2.05-.54.87-2.06.48-4.16-.97-5.87s-3.85-2.45-6.06-2.81c-5.58-.9-11.24-1.43-16.86-1.97-11.32-1.09-22.66-2.33-34.01-3.07s-22.95-.45-34.39-.08c-9.9.32-19.93.57-29.71,2.27s-19.29,5.19-26.2,12.43c-1.33,1.4.78,3.52,2.12,2.12h0Z"/>
    </g>
  </g>
  <g id="Layer_2" data-name="Layer 2" class="cls-7">
    <path class="cls-4" d="M32.46,194.66s20.89-74.76,43.96-94.96c25.15,12.6,118.4,22.44,143.74-.38,0,0,46.65,28.17,39.24,95.92-51.82,23.52-155.48,32.08-226.95-.58Z"/>
  </g>
  <g id="Layer_4" data-name="Layer 4">
    <g>
      <g>
        <path class="cls-3" d="M261.31,80.69c2.61-1.73,4.74-4.46,5.31-7.54s-1.87-6.83-4.95-6.27c3.77-4.26,3.78-11.34.03-15.61-1.03-1.17-2.28-2.13-3.19-3.39-2.47-3.4-2.23-8.62-5.63-11.09-1.69-1.23-3.9-1.43-5.84-2.21-6.45-2.57-9.23-10.92-15.77-13.23-5.71-2.01-12.12,1.36-18.02-.01-5.47-1.27-9.15-6.23-13.72-9.51-10.34-7.43-24.41-5.84-36.99-3.86-4.65.73-9.4,1.47-14.04.67-4.86-.83-9.28-3.3-13.98-4.8-7.62-2.43-16.04-2.25-23.55.5-10.96,4.02-20.5,13.39-32.16,12.81-2.3-.12-4.57-.63-6.87-.7-7.45-.23-14.4,4.3-18.98,10.18s-7.2,13.01-9.74,20.01c-1.02,2.81-2.04,5.62-3.06,8.43-.73,2.01-1.46,4.03-1.85,6.13-.83,4.49,0,9.26,2.3,13.21,0,0,134.53,63.48,220.72,6.29Z"/>
        <path class="cls-2" d="M262.07,81.99c3.18-2.17,6.37-5.98,6.13-10.09-.22-3.69-3.06-6.99-6.92-6.46l1.46,2.51c3.15-3.68,4.14-8.93,2.5-13.51-.91-2.54-2.54-4.3-4.41-6.18s-2.46-3.98-3.23-6.34c-.68-2.08-1.49-4.26-3.15-5.77-2.08-1.88-4.8-2-7.25-3.11-4.04-1.83-6.48-5.99-9.5-9.05-1.57-1.59-3.35-2.99-5.43-3.84-2.5-1.02-5.22-1.07-7.87-.79-2.9.3-5.79.95-8.72.82-2.59-.12-4.86-1.15-6.96-2.63-4.3-3.04-7.64-7.08-12.48-9.38s-10.22-3.2-15.57-3.32-10.95.55-16.36,1.36c-6.35.95-12.6,2.12-18.89.15-3-.94-5.86-2.28-8.81-3.36-2.79-1.02-5.65-1.7-8.59-2.06-5.97-.74-12.18-.02-17.81,2.11-5.07,1.92-9.69,4.79-14.42,7.39-4.48,2.46-9.29,4.85-14.48,5.2-3.01.2-5.92-.5-8.91-.66-2.6-.14-5.25.27-7.71,1.13-5.09,1.78-9.48,5.25-12.79,9.46-3.7,4.71-6.16,10.17-8.3,15.73-1.11,2.88-2.14,5.79-3.2,8.69-1.14,3.12-2.45,6.24-3.26,9.47-.7,2.8-.82,5.67-.39,8.52.22,1.41.58,2.8,1.09,4.13.43,1.11.95,2.91,1.98,3.59.25.16.57.26.83.38,6,2.73,12.14,5.17,18.32,7.48,12.02,4.49,24.27,8.39,36.68,11.67,15.93,4.21,32.15,7.4,48.54,9.22,17.8,1.98,35.85,2.32,53.65.12s36.06-7.15,52.36-15.61c4.07-2.11,8.03-4.44,11.86-6.98,1.6-1.06.1-3.66-1.51-2.59-15.02,9.94-31.97,16.44-49.57,20.03s-34.99,4.26-52.53,3.24c-16.58-.96-33.04-3.52-49.22-7.19-13.42-3.04-26.67-6.84-39.69-11.31-4.84-1.66-9.65-3.42-14.42-5.28-1.85-.72-3.69-1.46-5.53-2.21-.75-.31-1.49-.62-2.24-.93-.39-.16-.04-.02-.22-.09s-.33-.14-.5-.21c-.31-.13-.62-.27-.94-.4-1.37-.59-2.97-1.08-4.23-1.88-.03-.02-.07-.02-.09-.04,0,0-.01,0-.02,0,.66.51.14-.18.03-.4-.2-.39-.38-.78-.55-1.18-1.09-2.66-1.52-5.56-1.29-8.42s1.38-5.8,2.39-8.57c1.11-3.05,2.21-6.1,3.33-9.14,3.72-10.16,8.56-21.65,19.32-26.05,2.41-.98,4.98-1.49,7.59-1.38,2.87.12,5.68.82,8.57.7,5.14-.21,9.97-2.18,14.48-4.52s9.14-5.33,13.98-7.47c5.22-2.3,10.92-3.31,16.62-2.95,2.97.19,5.91.78,8.74,1.72s5.57,2.21,8.39,3.23,5.86,1.72,8.94,1.81,6.44-.35,9.62-.83c10.29-1.57,21.42-3.43,31.46.35,2.41.91,4.69,2.21,6.71,3.81s3.78,3.36,5.76,4.95,3.98,2.94,6.35,3.73c2.53.84,5.23.79,7.84.48,2.74-.32,5.49-.9,8.27-.75,2.3.12,4.38.99,6.15,2.46,3.4,2.82,5.68,6.74,9.21,9.43,1.96,1.49,4.09,2.15,6.41,2.86s3.75,2.12,4.62,4.47c.77,2.08,1.25,4.27,2.33,6.23,1.24,2.25,3.5,3.61,4.84,5.76,2.35,3.76,2.08,9.02-.83,12.4-1.04,1.21-.01,2.71,1.46,2.51,2.14-.29,3.33,2.74,3.11,4.43-.35,2.73-2.43,5.14-4.62,6.64-1.58,1.08-.09,3.68,1.51,2.59Z"/>
      </g>
      <path class="cls-2" d="M45.14,64.67c1.55-3.15,3.14-6.51,5.88-8.83,1.26-1.07,2.82-1.85,4.45-2.15,1.73-.32,3.17.13,4.71.9s2.97,1.25,4.64.89c1.59-.34,3.02-1.4,4.07-2.61,2.17-2.51,3.33-5.67,6.77-6.71,3.03-.91,6.42-.18,8.61,2.14,1.33,1.41,3.45-.72,2.12-2.12-4.58-4.86-12.91-4.38-16.97.85-1.22,1.58-2.12,3.54-3.74,4.77-1.84,1.39-3.22.5-5.05-.33-3.41-1.56-7.3-.86-10.35,1.2-3.71,2.51-5.8,6.57-7.72,10.48-.85,1.73,1.74,3.25,2.59,1.51h0Z"/>
      <path class="cls-2" d="M118.6,51.99c3.7-1.77,7.64-3.03,11.68-3.75.98-.18,1.97-.32,2.97-.42.74-.08,1.81-.34,2.55-.08.68.24.95,1.29,1.42,1.81.51.57,1.16.98,1.88,1.22,1.58.52,3.28.17,4.76-.5,1.6-.72,3.04-1.86,4.85-1.97,3.94-.24,7.3,2.93,10.56,4.65,1.71.9,3.22-1.69,1.51-2.59-3.66-1.93-6.95-4.8-11.26-5.05-1.95-.12-3.7.54-5.39,1.45-1.22.66-3.37,2.05-4.67.81-.64-.61-.83-1.51-1.59-2.08-.7-.53-1.53-.75-2.4-.79-1.97-.11-4.06.31-6,.66-4.3.77-8.46,2.17-12.4,4.06-1.74.83-.22,3.42,1.51,2.59h0Z"/>
      <path class="cls-2" d="M183.09,66.87c2.78-2.25,6.43-3.27,9.98-2.99.88.07,1.75.24,2.6.49s1.62.63,2.49.65c1.79.06,3.13-1.07,4.28-2.3s2.26-2.24,3.96-2.69,3.38-.39,5.03-.14c3.99.61,7.9,2.24,11.54,3.94,1.74.81,3.26-1.78,1.51-2.59-6.43-2.99-16.65-7.59-22.94-1.91-1.21,1.09-2.18,3.08-4.02,2.5s-3.66-.99-5.61-.99c-4.02-.01-7.84,1.41-10.95,3.92-1.5,1.21.63,3.32,2.12,2.12h0Z"/>
      <path class="cls-2" d="M163.73,28.08c1.55.07,2.89-.59,4.4-.79s2.57.89,3.81,1.59c2.61,1.48,5.53,1.22,8.37.66,2.99-.6,5.82-1.37,8.83-.43s5.42,2.83,7.82,4.63c1.54,1.16,3.04-1.44,1.51-2.59-2.53-1.9-5.13-3.77-8.15-4.81s-6.1-.7-9.21-.03c-1.44.31-2.88.67-4.36.71-1.66.05-2.91-.45-4.28-1.35-1.21-.79-2.45-1.45-3.94-1.41-1.64.04-3.15.9-4.8.83-1.93-.08-1.93,2.92,0,3h0Z"/>
      <path class="cls-2" d="M84.48,32.76c2.75-1.76,5.9-2.69,9.17-2.63,1.61.03,3.12.52,4.71.64,1.78.13,3.08-.67,4.42-1.75,5.03-4.06,11.38-5.86,17.8-5,.81.11,1.49-.77,1.5-1.5,0-.9-.7-1.39-1.5-1.5-6.53-.87-13.4.9-18.66,4.88-.65.49-1.25,1.1-1.96,1.52-.81.49-1.56.37-2.44.19-1.62-.33-3.24-.53-4.9-.47-3.43.14-6.77,1.18-9.66,3.03-1.62,1.04-.12,3.63,1.51,2.59h0Z"/>
      <path class="cls-2" d="M92.63,71.68c2.43-1.01,4.91-1.87,7.45-2.54,1.06-.28,2.2-.63,3.32-.51s1.89.92,2.77,1.52c1.89,1.27,4.12,1.29,6.32,1.26,2.78-.03,5.55-.07,8.33-.1,1.93-.02,1.93-3.02,0-3-2.78.03-5.55.07-8.33.1-1.18.01-2.44.11-3.58-.25-1.06-.33-1.81-1.13-2.74-1.69-2-1.21-4.27-.9-6.43-.35-2.7.68-5.34,1.59-7.92,2.66-1.76.73-.99,3.63.8,2.89h0Z"/>
      <path class="cls-2" d="M226.79,45.77c2.96.11,5.9.47,8.79,1.12.96.22,2.32.36,3.11,1.03s.83,1.95,1.45,2.76c1.22,1.61,3.21,1.89,5.03,2.42.92.26,1.7.61,2.18,1.48.51.92.65,2.05.78,3.08.1.81.62,1.49,1.5,1.5.74,0,1.6-.7,1.5-1.5-.3-2.53-.82-5.26-3.21-6.66-.95-.55-2.03-.81-3.08-1.08-.86-.22-1.96-.4-2.44-1.25-.64-1.14-.77-2.26-1.87-3.11s-2.41-1.15-3.7-1.45c-3.28-.77-6.65-1.2-10.02-1.33-1.93-.07-1.93,2.93,0,3h0Z"/>
    </g>
    <path class="cls-6" d="M165.06,222.24c-67.46.81-134.96-10.16-156.22-13.96-3.95-.71-6.72-4.29-6.41-8.29,1.64-21.58,7.65-86.18,37.95-122.76-.38-.22,105.85,39.84,221.95.66,1.26-.43,2.67-.04,3.5,1,29.56,37.04,34.48,99.45,36.09,120.75.3,4-2.46,7.59-6.41,8.29-21.26,3.8-69.51,16.08-156.51,14.08"/>
    <path class="cls-5" d="M250.14,134.35c0-10.33-8.37-18.7-18.7-18.7s-18.7,8.37-18.7,18.7h-121.13c0-10.33-8.37-18.7-18.7-18.7s-18.7,8.37-18.7,18.7c0,5.26,2.18,10,5.67,13.4-3.49,3.4-5.67,8.14-5.67,13.4,0,10.33,8.37,18.7,18.7,18.7s18.7-8.37,18.7-18.7h121.13c0,10.33,8.37,18.7,18.7,18.7s18.7-8.37,18.7-18.7c0-5.26-2.18-10-5.67-13.4,3.49-3.4,5.67-8.14,5.67-13.4Z"/>
  </g>
  <g id="Layer_4_copy" data-name="Layer 4 copy" class="cls-7">
    <path class="cls-4" d="M170.78,39.34c-31.99,1.48-68.37,4.14-96.78,12.66C14,70,4.55,170.04,2.43,197.98c-.3,4,2.46,7.59,6.41,8.29,21.26,3.8,88.76,14.77,156.22,13.96"/>
    <path class="cls-4" d="M133.57,38.98c31.99,1.48,68.48,3.78,96.78,12.66,61.65,19.36,69.45,118.04,71.57,145.98.3,4-2.46,7.59-6.41,8.29-21.26,3.8-88.76,14.77-156.22,13.96"/>
    <path class="cls-4" d="M40.45,75.24s106.92,40.24,223.74,0"/>
    <path class="cls-4" d="M44.45,87.11s11.39-24.49,94.56-35.51c8.6-1.14,17.35-1.01,25.91.39,83.14,13.59,103.27,39.43,103.27,39.43"/>
  </g>
</svg>